<?xml version="1.0" encoding="UTF-8"?>
<svg xmlns="http://www.w3.org/2000/svg" viewBox="0 0 640 720" fill="none" role="img" aria-label="Mobile application development">
  <defs>
    <linearGradient id="mobile-bg" x1="0" y1="0" x2="640" y2="720" gradientUnits="userSpaceOnUse">
      <stop stop-color="#141414"/>
      <stop offset="1" stop-color="#0a0a0a"/>
    </linearGradient>
    <linearGradient id="mobile-phone" x1="220" y1="80" x2="420" y2="640" gradientUnits="userSpaceOnUse">
      <stop stop-color="#1a1a1a"/>
      <stop offset="1" stop-color="#0f0f0f"/>
    </linearGradient>
  </defs>

  <rect width="640" height="720" rx="24" fill="url(#mobile-bg)"/>
  <rect x="1" y="1" width="638" height="718" rx="23" stroke="#ffffff" stroke-opacity="0.08"/>

  <rect x="48" y="48" width="190" height="34" rx="17" fill="#ff6600" fill-opacity="0.12" stroke="#ff6600" stroke-opacity="0.35"/>
  <text x="143" y="70" text-anchor="middle" fill="#ff6600" font-family="Arial,sans-serif" font-size="12" font-weight="700" letter-spacing="1.2">MOBILE APPS</text>

  <rect x="210" y="96" width="220" height="440" rx="32" fill="url(#mobile-phone)" stroke="#ffffff" stroke-opacity="0.14" stroke-width="2"/>
  <rect x="222" y="128" width="196" height="376" rx="18" fill="#101010"/>
  <rect x="278" y="112" width="84" height="10" rx="5" fill="#222"/>

  <rect x="238" y="148" width="164" height="36" rx="10" fill="#ff6600" fill-opacity="0.18"/>
  <rect x="250" y="158" width="72" height="8" rx="4" fill="#ff6600"/>
  <rect x="250" y="172" width="48" height="6" rx="3" fill="#ffffff" opacity="0.25"/>

  <rect x="238" y="198" width="164" height="72" rx="12" fill="#181818" stroke="#ffffff" stroke-opacity="0.06"/>
  <rect x="250" y="212" width="88" height="8" rx="4" fill="#ffffff" opacity="0.35"/>
  <rect x="250" y="228" width="120" height="6" rx="3" fill="#ffffff" opacity="0.15"/>
  <rect x="250" y="244" width="64" height="14" rx="7" fill="#ff6600" opacity="0.85"/>

  <rect x="238" y="284" width="76" height="76" rx="14" fill="#181818" stroke="#ffffff" stroke-opacity="0.06"/>
  <rect x="324" y="284" width="78" height="76" rx="14" fill="#181818" stroke="#ffffff" stroke-opacity="0.06"/>
  <rect x="250" y="302" width="52" height="8" rx="4" fill="#61dafb" opacity="0.8"/>
  <rect x="336" y="302" width="52" height="8" rx="4" fill="#68a063" opacity="0.8"/>

  <rect x="238" y="374" width="164" height="72" rx="12" fill="#181818" stroke="#ffffff" stroke-opacity="0.06"/>
  <rect x="250" y="390" width="100" height="8" rx="4" fill="#ffffff" opacity="0.3"/>
  <rect x="250" y="408" width="136" height="6" rx="3" fill="#ffffff" opacity="0.12"/>
  <rect x="250" y="424" width="136" height="6" rx="3" fill="#ffffff" opacity="0.12"/>

  <rect x="222" y="456" width="196" height="48" fill="#141414"/>
  <circle cx="262" cy="480" r="6" fill="#ff6600"/>
  <circle cx="320" cy="480" r="6" fill="#ffffff" opacity="0.2"/>
  <circle cx="378" cy="480" r="6" fill="#ffffff" opacity="0.2"/>

  <rect x="48" y="220" width="130" height="100" rx="18" fill="#161616" stroke="#ffffff" stroke-opacity="0.1"/>
  <text x="113" y="258" text-anchor="middle" fill="#61dafb" font-family="Arial,sans-serif" font-size="22" font-weight="700">RN</text>
  <text x="113" y="284" text-anchor="middle" fill="#f0e6d4" font-family="Arial,sans-serif" font-size="12" font-weight="600">React Native</text>

  <rect x="462" y="220" width="130" height="100" rx="18" fill="#161616" stroke="#ff6600" stroke-opacity="0.28"/>
  <text x="527" y="258" text-anchor="middle" fill="#ff6600" font-family="Arial,sans-serif" font-size="22" font-weight="700">API</text>
  <text x="527" y="284" text-anchor="middle" fill="#f0e6d4" font-family="Arial,sans-serif" font-size="12" font-weight="600">REST / JSON</text>

  <rect x="48" y="360" width="130" height="100" rx="18" fill="#161616" stroke="#ffffff" stroke-opacity="0.1"/>
  <text x="113" y="402" text-anchor="middle" fill="#68a063" font-family="Arial,sans-serif" font-size="18" font-weight="700">iOS</text>
  <text x="113" y="424" text-anchor="middle" fill="#68a063" font-family="Arial,sans-serif" font-size="18" font-weight="700">Android</text>

  <rect x="462" y="360" width="130" height="100" rx="18" fill="#161616" stroke="#ffffff" stroke-opacity="0.1"/>
  <text x="527" y="408" text-anchor="middle" fill="#f0e6d4" font-family="Arial,sans-serif" font-size="13" font-weight="600">Cross-Platform</text>
  <text x="527" y="430" text-anchor="middle" fill="#a89880" font-family="Arial,sans-serif" font-size="11">Production Apps</text>

  <text x="48" y="662" fill="#a89880" font-family="Arial,sans-serif" font-size="14">React Native | REST APIs | Play Store</text>
  <text x="48" y="686" fill="#f0e6d4" font-family="Arial,sans-serif" font-size="22" font-weight="700">Mobile Applications</text>
</svg>
